<svg width="26" height="25" viewBox="0 0 26 25" fill="none" xmlns="http://www.w3.org/2000/svg">
<path d="M18.0442 0.365356H8.56508C4.20071 0.365356 0.665771 3.7993 0.665771 8.03897V17.2473C0.665771 21.487 4.20071 24.9209 8.56508 24.9209H18.0442C22.4086 24.9209 25.9436 21.487 25.9436 17.2473V8.03897C25.9436 3.7993 22.4086 0.365356 18.0442 0.365356ZM23.5738 17.2473C23.5738 20.2112 21.0954 22.6188 18.0442 22.6188H8.56508C5.51397 22.6188 3.03556 20.2112 3.03556 17.2473V8.03897C3.03556 5.07504 5.51397 2.66744 8.56508 2.66744H18.0442C21.0954 2.66744 23.5738 5.07504 23.5738 8.03897V17.2473Z" fill="#30ABAE"/>
</svg>
